<svg xmlns="http://www.w3.org/2000/svg" width="32" height="32" viewBox="0 0 32 32" fill="none">
  <path fill-rule="evenodd" clip-rule="evenodd" d="M28 16C28 22.6274 22.6274 28 16 28C9.37258 28 4 22.6274 4 16C4 9.37256 9.37258 4 16 4C22.6274 4 28 9.37256 28 16Z" stroke="white" stroke-width="2" stroke-linecap="round" stroke-linejoin="round"/>
  <path d="M13.4045 13.262C12.8838 13.6227 12.6702 14.288 12.8836 14.8844L14.1503 18.4249C14.2146 18.6047 14.3971 18.7139 14.5859 18.6858L18.6516 18.0797C19.2696 17.9876 19.7518 17.497 19.8332 16.8775L20.8824 8.89497C20.9276 8.55091 20.5432 8.31643 20.258 8.51404L13.4045 13.262Z" fill="#19B5BF"/>
  <path d="M11.6687 23.5847C11.3907 23.7573 11.0343 23.5413 11.0588 23.215L11.5161 17.1087C11.5481 16.6809 12.1396 16.5968 12.2897 16.9987L13.278 19.6459C13.344 19.8228 13.5249 19.9294 13.7117 19.9016L16.9127 19.4244C17.3423 19.3604 17.5517 19.9307 17.1827 20.1598L11.6687 23.5847Z" fill="#19B5BF"/>
</svg>
