<svg width="32" height="32" viewBox="0 0 32 32" fill="none" xmlns="http://www.w3.org/2000/svg">
<path fill-rule="evenodd" clip-rule="evenodd" d="M15.6686 12.2831L18.4504 12.2831C18.736 12.2831 19.0082 12.4048 19.1518 12.6517C20.2293 14.5047 22.4036 21.0526 23.1865 23.46C23.3508 23.9652 23.0862 24.5066 22.5841 24.68C19.252 25.8306 16.9531 25.9249 13.3312 25.3462C12.826 25.2655 12.4734 24.8075 12.5944 24.3103C12.7888 23.5122 13.2216 22.3718 14.1647 21.7525C15.339 20.9815 15.4454 20.545 15.7787 19.1774C15.812 19.0411 15.8474 18.8956 15.8864 18.7395L15.9157 18.6082C15.4998 18.547 15.0321 18.3905 14.5169 18.0967C14.2866 17.9652 14.0184 17.9077 13.7586 17.961C12.715 18.1749 11.7518 18.3921 11.0704 18.5519C10.614 18.6589 10.1418 18.4413 9.93214 18.0221L9.38747 16.9327C9.16492 16.4876 9.30353 15.9466 9.71269 15.6633L13.5846 12.9828L13.3007 6.77524L15.6686 12.2831Z" fill="#9046ED"/>
<path fill-rule="evenodd" clip-rule="evenodd" d="M28 17.1328C28.5523 17.1328 29 16.6851 29 16.1328C29 15.5805 28.5523 15.1328 28 15.1328L26.5333 15.1328C25.981 15.1328 25.5333 15.5805 25.5333 16.1328C25.5333 16.6851 25.981 17.1328 26.5333 17.1328L28 17.1328ZM5.46667 17.1328C6.01895 17.1328 6.46667 16.6851 6.46667 16.1328C6.46667 15.5806 6.01895 15.1328 5.46667 15.1328L4 15.1328C3.44772 15.1328 3 15.5806 3 16.1328C3 16.6851 3.44772 17.1328 4 17.1328L5.46667 17.1328Z" fill="white"/>
<path fill-rule="evenodd" clip-rule="evenodd" d="M15.8672 6.4668C15.3149 6.4668 14.8672 6.01908 14.8672 5.4668L14.8672 4.00013C14.8672 3.44785 15.3149 3.00013 15.8672 3.00013C16.4195 3.00013 16.8672 3.44785 16.8672 4.00013L16.8672 5.4668C16.8672 6.01908 16.4195 6.4668 15.8672 6.4668Z" fill="white"/>
<path fill-rule="evenodd" clip-rule="evenodd" d="M20.6516 7.67773C20.1733 7.40159 20.0094 6.79 20.2855 6.31171L21.0189 5.04154C21.295 4.56325 21.9066 4.39937 22.3849 4.67551C22.8632 4.95166 23.0271 5.56325 22.7509 6.04154L22.0176 7.31171C21.7414 7.79 21.1298 7.95388 20.6516 7.67773Z" fill="white"/>
<path fill-rule="evenodd" clip-rule="evenodd" d="M5.04178 21.0179C4.56349 21.2941 4.39962 21.9056 4.67576 22.3839C4.9519 22.8622 5.56349 23.0261 6.04178 22.75L7.31195 22.0166C7.79025 21.7405 7.95412 21.1289 7.67798 20.6506C7.40184 20.1723 6.79025 20.0084 6.31195 20.2846L5.04178 21.0179ZM24.5563 9.75126C24.078 10.0274 23.9141 10.639 24.1903 11.1173C24.4664 11.5956 25.078 11.7595 25.5563 11.4833L26.8265 10.75C27.3047 10.4738 27.4686 9.86224 27.1925 9.38395C26.9163 8.90566 26.3047 8.74178 25.8265 9.01793L24.5563 9.75126Z" fill="white"/>
<path fill-rule="evenodd" clip-rule="evenodd" d="M6.17467 9.01786C5.69638 8.74172 5.08479 8.90559 4.80864 9.38389C4.5325 9.86218 4.69638 10.4738 5.17467 10.7499L6.44484 11.4832C6.92313 11.7594 7.53472 11.5955 7.81087 11.1172C8.08701 10.6389 7.92313 10.0273 7.44484 9.75119L6.17467 9.01786ZM25.689 20.2846C25.2107 20.0084 24.5991 20.1723 24.323 20.6506C24.0468 21.1289 24.2107 21.7405 24.689 22.0166L25.9592 22.75C26.4375 23.0261 27.049 22.8622 27.3252 22.3839C27.6013 21.9056 27.4375 21.2941 26.9592 21.0179L25.689 20.2846Z" fill="white"/>
<path fill-rule="evenodd" clip-rule="evenodd" d="M9.61603 4.67383C10.0943 4.39769 10.7059 4.56156 10.9821 5.03985L11.7154 6.31002C11.9915 6.78832 11.8277 7.39991 11.3494 7.67605C10.8711 7.95219 10.2595 7.78832 9.98333 7.31002L9.25 6.03985C8.97386 5.56156 9.13773 4.94997 9.61603 4.67383Z" fill="white"/>
</svg>
