<svg width="32" height="32" viewBox="0 0 32 32" fill="none" xmlns="http://www.w3.org/2000/svg">
<path d="M16.9734 28C16.9918 27.7867 17 27.5733 17 27.3565C17 24.9722 15.9316 22.796 14.1726 21.1439C12.1236 19.2152 9.13279 18 5.80082 18C4.83452 18 3.89479 18.1024 3 18.2953" stroke="white" stroke-width="2" stroke-linecap="round" stroke-linejoin="round"/>
<path d="M19 21C20.8991 19.1443 23.4954 18 26.3594 18C27.2704 18 28.1564 18.116 29 18.3344" stroke="white" stroke-width="2" stroke-linecap="round" stroke-linejoin="round"/>
<path fill-rule="evenodd" clip-rule="evenodd" d="M18.9992 7.49996C18.9992 9.376 18.1049 11.1052 16.5974 12.493C16.2589 12.8046 15.7414 12.8048 15.4027 12.4934C13.8936 11.1054 12.9992 9.3759 12.9992 7.49996C12.9992 5.62403 13.8936 3.89448 15.4027 2.50657C15.7414 2.19516 16.2589 2.19529 16.5974 2.50688C18.1049 3.89473 18.9992 5.62417 18.9992 7.49996ZM12.2095 12.1693C13.5712 13.2284 14.4372 14.5267 14.8077 15.89C14.965 16.4688 14.4703 16.9795 13.8761 16.8975C12.0118 16.6403 10.2277 15.9517 8.78726 14.8313C7.42522 13.772 6.55919 12.4734 6.18951 11.1093C6.03267 10.5306 6.52748 10.0205 7.12143 10.1026C8.98466 10.3602 10.7688 11.049 12.2095 12.1693ZM17.19 15.8902C17.033 16.469 17.528 16.9793 18.122 16.8971C19.9855 16.6393 21.7698 15.9505 23.2101 14.8302C24.5719 13.771 25.4379 12.4728 25.8082 11.1095C25.9654 10.5308 25.4708 10.0203 24.8767 10.1022C23.0124 10.3592 21.228 11.0481 19.7875 12.1685C18.4255 13.2278 17.5598 14.5261 17.19 15.8902Z" fill="#9046ED"/>
</svg>
