<svg width="32" height="32" viewBox="0 0 32 32" fill="none" xmlns="http://www.w3.org/2000/svg">
<path d="M8.36364 5.08333C9.45455 4.54167 13.4286 4 16 4C18.5714 4 22.5455 4.54167 23.6364 5.08333C23.6364 7.79167 25.8182 9.41667 28 9.41667C27.9253 10.3523 27.8721 11.4075 27.8159 12.5225C27.657 15.6736 27.474 19.3025 26.7143 22.0618C25.6857 25.7974 18.8571 28.9104 16 30C13.1429 28.9104 6.31429 25.7974 5.28571 22.0618C4.52597 19.3025 4.34299 15.6736 4.1841 12.5225C4.12788 11.4075 4.07468 10.3523 4 9.41667C6.18182 9.41667 8.36364 7.79167 8.36364 5.08333Z" stroke="white" stroke-width="2" stroke-linecap="round" stroke-linejoin="round"/>
<path fill-rule="evenodd" clip-rule="evenodd" d="M24.2831 18.9854C23.3689 16.3644 21.7752 14.7776 20.6855 13.6926L20.6855 13.6926C20.5504 13.5581 20.4231 13.4314 20.3058 13.3113C20.1062 13.107 19.8356 12.9849 19.55 12.9849H15.8935L11.9991 8L13.8134 13.8057L9.21214 16.9912C8.80298 17.2745 8.66437 17.8155 8.88692 18.2606L9.64032 19.7674C9.84992 20.1866 10.322 20.4042 10.7782 20.2966C11.5881 20.1055 12.7893 19.8334 14.093 19.567C14.3528 19.5139 14.6212 19.5707 14.8502 19.7045C15.4715 20.0676 16.0344 20.2589 16.533 20.3323L16.4991 20.4849C16.4537 20.6661 16.4125 20.8352 16.374 20.9935L16.374 20.9935C15.9867 22.5821 15.8631 23.0893 14.4991 23.9849C13.8742 24.3951 13.4221 24.8819 13.1051 25.3845C14.1307 25.9357 15.1457 26.4047 15.999 26.7659C17.2854 26.2214 18.9394 25.432 20.4428 24.4848C21.4254 23.8659 22.2636 23.2292 22.8797 22.6096C23.5161 21.9696 23.7536 21.5101 23.8209 21.2654C24.0115 20.5734 24.1618 19.806 24.2831 18.9854Z" fill="#9046ED"/>
</svg>
